Normalized EMG Linear Envelopes
nRows=201
nColumns=4

endheader
time	 med_gas_r	  soleus_r	 tib_ant_r	
6.55343	  0.025158	  0.193486	  0.022256	
6.58669	  0.025678	  0.180229	  0.022168	
6.61996	  0.026147	  0.167664	  0.022165	
6.65323	  0.026548	  0.156847	  0.022291	
6.68649	  0.026978	  0.149347	  0.022496	
6.71976	  0.027550	  0.146016	  0.022696	
6.75302	  0.028272	  0.146062	  0.022849	
6.78629	  0.029031	  0.147387	  0.022990	
6.81956	  0.029691	  0.148028	  0.023183	
6.85282	  0.030224	  0.147489	  0.023458	
6.88609	  0.030722	  0.146851	  0.023751	
6.91935	  0.031284	  0.147542	  0.023935	
6.95262	  0.031885	  0.149827	  0.023908	
6.98589	  0.032375	  0.152330	  0.023687	
7.01915	  0.032625	  0.153063	  0.023404	
7.05242	  0.032666	  0.151120	  0.023187	
7.08569	  0.032668	  0.147499	  0.023042	
7.11895	  0.032760	  0.144262	  0.022859	
7.15222	  0.032888	  0.142800	  0.022564	
7.18548	  0.032852	  0.142848	  0.022247	
7.21875	  0.032497	  0.143164	  0.022097	
7.25202	  0.031873	  0.143091	  0.022200	
7.28528	  0.031214	  0.143350	  0.022396	
7.31855	  0.030777	  0.145197	  0.022379	
7.35181	  0.030707	  0.148774	  0.021949	
7.38508	  0.031001	  0.152401	  0.021191	
7.41835	  0.031565	  0.153679	  0.020412	
7.45161	  0.032273	  0.151502	  0.019890	
7.48488	  0.033003	  0.147100	  0.019674	
7.51815	  0.033662	  0.143101	  0.019592	
7.55141	  0.034208	  0.141473	  0.019464	
7.58468	  0.034643	  0.142237	  0.019314	
7.61794	  0.034977	  0.143964	  0.019375	
7.65121	  0.035193	  0.145386	  0.019871	
7.68448	  0.035259	  0.146520	  0.020795	
7.71774	  0.035170	  0.148364	  0.021881	
7.75101	  0.034966	  0.151669	  0.022799	
7.78427	  0.034707	  0.156022	  0.023364	
7.81754	  0.034425	  0.160014	  0.023575	
7.85081	  0.034124	  0.162284	  0.023495	
7.88407	  0.033808	  0.162467	  0.023152	
7.91734	  0.033523	  0.161309	  0.022568	
7.9506	  0.033338	  0.159887	  0.021861	
7.98387	  0.033300	  0.158669	  0.021246	
8.01714	  0.033395	  0.157253	  0.020923	
8.0504	  0.033532	  0.155087	  0.020943	
8.08367	  0.033573	  0.152495	  0.021191	
8.11694	  0.033389	  0.150954	  0.021476	
8.1502	  0.032941	  0.152123	  0.021651	
8.18347	  0.032343	  0.156346	  0.021658	
8.21673	  0.031831	  0.161997	  0.021507	
8.25	  0.031658	  0.166476	  0.021236	
8.28327	  0.031962	  0.168119	  0.020910	
8.31653	  0.032698	  0.167393	  0.020629	
8.3498	  0.033648	  0.166249	  0.020502	
8.38306	  0.034518	  0.166241	  0.020566	
8.41633	  0.035048	  0.167173	  0.020755	
8.4496	  0.035105	  0.167517	  0.020932	
8.48286	  0.034715	  0.166132	  0.020989	
8.51613	  0.034018	  0.163568	  0.020910	
8.5494	  0.033206	  0.161715	  0.020758	
8.58266	  0.032474	  0.162182	  0.020608	
8.61593	  0.031987	  0.165053	  0.020498	
8.64919	  0.031860	  0.169188	  0.020421	
8.68246	  0.032144	  0.173607	  0.020362	
8.71573	  0.032848	  0.178482	  0.020333	
8.74899	  0.033982	  0.184803	  0.020365	
8.78226	  0.035576	  0.193302	  0.020454	
8.81552	  0.037646	  0.203854	  0.020503	
8.84879	  0.040131	  0.215800	  0.020339	
8.88206	  0.042872	  0.228501	  0.019809	
8.91532	  0.045651	  0.241315	  0.018902	
8.94859	  0.048253	  0.253205	  0.017788	
8.98185	  0.050541	  0.262809	  0.016747	
9.01512	  0.052502	  0.269225	  0.016026	
9.04839	  0.054273	  0.272729	  0.015726	
9.08165	  0.056113	  0.274623	  0.015795	
9.11492	  0.058314	  0.276420	  0.016107	
9.14819	  0.061087	  0.279319	  0.016571	
9.18145	  0.064475	  0.284398	  0.017187	
9.21472	  0.068355	  0.292826	  0.018007	
9.24798	  0.072519	  0.305357	  0.019057	
9.28125	  0.076786	  0.321445	  0.020272	
9.31452	  0.081080	  0.339133	  0.021497	
9.34778	  0.085406	  0.356167	  0.022574	
9.38105	  0.089758	  0.371309	  0.023444	
9.41431	  0.094037	  0.384489	  0.024176	
9.44758	  0.098068	  0.395778	  0.024878	
9.48085	  0.101710	  0.404589	  0.025579	
9.51411	  0.104954	  0.410191	  0.026182	
9.54738	  0.107914	  0.412962	  0.026573	
9.58065	  0.110742	  0.414844	  0.026761	
9.61391	  0.113571	  0.418257	  0.026936	
9.64718	  0.116525	  0.424357	  0.027355	
9.68044	  0.119759	  0.432260	  0.028167	
9.71371	  0.123467	  0.439906	  0.029337	
9.74698	  0.127857	  0.445686	  0.030705	
9.78024	  0.133106	  0.449233	  0.032118	
9.81351	  0.139277	  0.450808	  0.033477	
9.84677	  0.146152	  0.450306	  0.034695	
9.88004	  0.153078	  0.447282	  0.035662	
9.91331	  0.159000	  0.442093	  0.036288	
9.94657	  0.162787	  0.436803	  0.036583	
9.97984	  0.163738	  0.434583	  0.036679	
10.0131	  0.161964	  0.437953	  0.036740	
10.0464	  0.158377	  0.447462	  0.036852	
10.0796	  0.154276	  0.461823	  0.036987	
10.1129	  0.150824	  0.478919	  0.037066	
10.1462	  0.148709	  0.496409	  0.037058	
10.1794	  0.148153	  0.511707	  0.037019	
10.2127	  0.149101	  0.522168	  0.037048	
10.246	  0.151365	  0.526030	  0.037215	
10.2792	  0.154600	  0.523411	  0.037517	
10.3125	  0.158222	  0.516305	  0.037909	
10.3458	  0.161471	  0.507429	  0.038372	
10.379	  0.163670	  0.498872	  0.038947	
10.4123	  0.164530	  0.491623	  0.039678	
10.4456	  0.164265	  0.486126	  0.040526	
10.4788	  0.163389	  0.482986	  0.041382	
10.5121	  0.162358	  0.482864	  0.042166	
10.5454	  0.161336	  0.485599	  0.042921	
10.5786	  0.160295	  0.489637	  0.043764	
10.6119	  0.159302	  0.492737	  0.044739	
10.6452	  0.158674	  0.493642	  0.045722	
10.6784	  0.158795	  0.493350	  0.046453	
10.7117	  0.159775	  0.494830	  0.046681	
10.745	  0.161310	  0.501269	  0.046317	
10.7782	  0.162915	  0.514055	  0.045485	
10.8115	  0.164291	  0.531867	  0.044446	
10.8448	  0.165514	  0.551374	  0.043459	
10.878	  0.166951	  0.569000	  0.042707	
10.9113	  0.169016	  0.582640	  0.042326	
10.9446	  0.171922	  0.592267	  0.042437	
10.9778	  0.175468	  0.599120	  0.043086	
11.0111	  0.178973	  0.604074	  0.044135	
11.0444	  0.181492	  0.606499	  0.045275	
11.0776	  0.182285	  0.604680	  0.046194	
11.1109	  0.181202	  0.597584	  0.046753	
11.1442	  0.178650	  0.586445	  0.046988	
11.1774	  0.175206	  0.574641	  0.046966	
11.2107	  0.171344	  0.565942	  0.046681	
11.244	  0.167584	  0.562674	  0.046103	
11.2772	  0.164738	  0.565080	  0.045294	
11.3105	  0.163735	  0.571708	  0.044428	
11.3437	  0.164982	  0.579894	  0.043677	
11.377	  0.167919	  0.586175	  0.043086	
11.4103	  0.171308	  0.587342	  0.042579	
11.4435	  0.174060	  0.582158	  0.042092	
11.4768	  0.175837	  0.572378	  0.041666	
11.5101	  0.176974	  0.561820	  0.041390	
11.5433	  0.178014	  0.554133	  0.041261	
11.5766	  0.179350	  0.551349	  0.041143	
11.6099	  0.181145	  0.554149	  0.040899	
11.6431	  0.183255	  0.562687	  0.040556	
11.6764	  0.185114	  0.576481	  0.040305	
11.7097	  0.185802	  0.593655	  0.040321	
11.7429	  0.184531	  0.611094	  0.040578	
11.7762	  0.181239	  0.625961	  0.040864	
11.8095	  0.176789	  0.637161	  0.040978	
11.8427	  0.172553	  0.645165	  0.040916	
11.876	  0.169717	  0.650593	  0.040857	
11.9093	  0.168819	  0.653289	  0.040984	
11.9425	  0.169717	  0.652746	  0.041348	
11.9758	  0.171837	  0.648859	  0.041904	
12.0091	  0.174485	  0.641845	  0.042634	
12.0423	  0.177118	  0.631746	  0.043602	
12.0756	  0.179531	  0.618809	  0.044860	
12.1089	  0.181920	  0.604718	  0.046338	
12.1421	  0.184739	  0.593012	  0.047851	
12.1754	  0.188355	  0.587534	  0.049202	
12.2087	  0.192660	  0.590000	  0.050277	
12.2419	  0.196950	  0.598947	  0.051034	
12.2752	  0.200234	  0.610945	  0.051422	
12.3085	  0.201761	  0.622676	  0.051350	
12.3417	  0.201330	  0.631850	  0.050724	
12.375	  0.199151	  0.636571	  0.049545	
12.4083	  0.195468	  0.634568	  0.047980	
12.4415	  0.190380	  0.623790	  0.046348	
12.4748	  0.184024	  0.604127	  0.045004	
12.5081	  0.176835	  0.578299	  0.044202	
12.5413	  0.169470	  0.550378	  0.044055	
12.5746	  0.162395	  0.522772	  0.044601	
12.6079	  0.155554	  0.494514	  0.045890	
12.6411	  0.148516	  0.462735	  0.047931	
12.6744	  0.140975	  0.426064	  0.050521	
12.7077	  0.133101	  0.386739	  0.053149	
12.7409	  0.125477	  0.349662	  0.055126	
12.7742	  0.118814	  0.319598	  0.055904	
12.8075	  0.113750	  0.299050	  0.055341	
12.8407	  0.110760	  0.287987	  0.053736	
12.874	  0.109965	  0.284661	  0.051663	
12.9073	  0.110815	  0.286349	  0.049739	
12.9405	  0.112023	  0.289747	  0.048434	
12.9738	  0.112073	  0.291589	  0.047907	
13.0071	  0.110135	  0.289751	  0.047883	
13.0403	  0.106707	  0.284244	  0.047659	
13.0736	  0.103469	  0.277193	  0.046367	
13.1069	  0.102464	  0.271581	  0.043379	
13.1401	  0.105106	  0.269598	  0.038618	
13.1734	  0.111550	  0.271714	  0.032518	
13.2067	  0.120636	  0.276883	  0.025748	
